<?xml version="1.0" encoding="utf-8"?>
<!-- Generator: Adobe Illustrator 22.1.0, SVG Export Plug-In . SVG Version: 6.00 Build 0)  -->
<svg version="1.1" id="Calque_1" xmlns="http://www.w3.org/2000/svg" xmlns:xlink="http://www.w3.org/1999/xlink" x="0px" y="0px"
	 viewBox="0 0 297.3 254.4" style="enable-background:new 0 0 297.3 254.4;" xml:space="preserve">
<style type="text/css">
	.st0{fill:url(#SVGID_1_);}
	.st1{fill:url(#SVGID_2_);}
	.st2{fill:url(#SVGID_3_);}
	.st3{fill:url(#SVGID_4_);}
	.st4{fill:url(#SVGID_5_);}
</style>
<g>
	<path d="M0,121.2h14.2l8.1,20.5l8-20.5h14.3v61.5H30.5v-32.9l-8,20.1h-0.2l-8.1-20.1v32.9H0V121.2z"/>
	<path d="M60,159.8l-13.1-38.5H62l5.6,21.6l5.5-21.6h14.7l-13,38.5v22.9H60V159.8z"/>
	<path d="M98.9,153.5v-3.1c0-21.6,10.7-29.9,22.6-29.9c3.8,0,6.2,0.5,8.9,1.7v13.3c-2.6-1.4-4.9-2.2-7.4-2.2
		c-4.9,0-9.1,3.7-9.1,17.6v2.3c0,14.5,3.9,17.5,9.5,17.5c2.2,0,4.4-0.7,7.3-2.2V181c-2.9,1.6-5.9,2.4-10.2,2.4
		C108.5,183.4,98.9,174.2,98.9,153.5z"/>
	<path d="M135.4,121.2h14.7v48.9h13v12.6h-27.7V121.2z"/>
	<path d="M167.2,121.2h14.7v61.5h-14.7V121.2z"/>
	<path d="M187.4,121.2h29.7v12.5h-15v11.9h13.3v12.3h-13.3v12.2h15.3v12.6h-30V121.2z"/>
	<path d="M221.9,121.2H236l10.7,27.7v-27.7h14.1v61.5h-13.4L236,153.4v29.2h-14.1V121.2z"/>
	<path d="M273.6,133.8h-9v-12.6h32.7v12.6h-9v48.9h-14.7V133.8z"/>
	<path d="M47.5,192.2h14.7v61.5H47.5V192.2z"/>
	<path d="M67.1,251.2v-13.1c4.2,2.2,8.1,3.7,12,3.7c3.4,0,5.6-1.6,5.6-4.6v-0.1c0-1.9-1.4-4.1-6-8.2c-8.7-7.4-12.6-11.7-12.6-19.9
		v-0.3c0-10.6,7.9-17.3,18.4-17.3c5.2,0,9,1,12.1,2.2v13.3c-3.9-2-7.2-3-10.7-3c-3,0-5.2,1.7-5.2,4.3v0.1c0,2.2,1.4,3.9,6,8.1
		c9.3,8.2,12.6,12.4,12.6,20.3v0.4c0,10.4-8.4,17.3-18.5,17.3C75.7,254.4,70.8,253,67.1,251.2z"/>
	<path d="M112.8,192.2h14.7c6.9,0,12.8,1.6,16.8,5.2c3.6,3.3,5.8,8.1,5.8,14.8v0.9c0,8.4-3.6,13.3-8,16.3l9.1,24.3h-15.7l-7-20h-1.2
		v20h-14.6V192.2z M127.8,222.6c4.2,0,7.2-2.4,7.2-8.7v-1.3c0-6.6-3.1-8.6-7.3-8.6h-0.4v18.6H127.8z"/>
	<path d="M154.4,192.2h14.7v61.5h-14.7V192.2z"/>
	<path d="M173.7,224.5v-3.1c0-21.6,10.7-29.9,22.6-29.9c3.8,0,6.2,0.5,8.9,1.7v13.3c-2.6-1.4-4.9-2.2-7.4-2.2
		c-4.9,0-9.1,3.7-9.1,17.6v2.3c0,14.5,3.9,17.5,9.5,17.5c2.2,0,4.4-0.7,7.3-2.2V252c-2.9,1.6-5.9,2.4-10.2,2.4
		C183.3,254.4,173.7,245.2,173.7,224.5z"/>
	<path d="M210.2,192.2h14.7v24.2h8.8v-24.2h14.7v61.5h-14.7V229h-8.8v24.7h-14.7V192.2z"/>
</g>
<g>
	<g>
		<linearGradient id="SVGID_1_" gradientUnits="userSpaceOnUse" x1="144.1867" y1="-1.2112" x2="144.1867" y2="90.5883">
			<stop  offset="0" style="stop-color:#F0E687"/>
			<stop  offset="1" style="stop-color:#C59632"/>
		</linearGradient>
		<polygon class="st0" points="187.2,14.3 178.8,0 101.2,44.8 101.2,44.7 101.2,44.8 101.2,44.8 101.2,44.8 102.7,80 109.5,59.2 
			109.5,59.1 		"/>
	</g>
	<g>
		<linearGradient id="SVGID_2_" gradientUnits="userSpaceOnUse" x1="138.0603" y1="-1.2112" x2="138.0603" y2="90.5883">
			<stop  offset="0" style="stop-color:#F0E687"/>
			<stop  offset="1" style="stop-color:#C59632"/>
		</linearGradient>
		<polygon class="st1" points="165.1,32 111.6,62.8 102.7,80 119.9,77.2 173.4,46.3 		"/>
	</g>
	<g>
		<linearGradient id="SVGID_3_" gradientUnits="userSpaceOnUse" x1="134.9817" y1="-1.2112" x2="134.9817" y2="90.5883">
			<stop  offset="0" style="stop-color:#F0E687"/>
			<stop  offset="1" style="stop-color:#C59632"/>
		</linearGradient>
		<polygon class="st2" points="167.3,73.8 158.9,59.4 122,80.8 122,80.8 102.7,80 130.3,95.2 130.3,95.2 		"/>
	</g>
	<g>
		<linearGradient id="SVGID_4_" gradientUnits="userSpaceOnUse" x1="191.4802" y1="-1.2112" x2="191.4802" y2="90.5883">
			<stop  offset="0" style="stop-color:#F0E687"/>
			<stop  offset="1" style="stop-color:#C59632"/>
		</linearGradient>
		<polygon class="st3" points="162.8,57.2 211.8,28.5 220.2,43 171.1,71.6 		"/>
	</g>
	<linearGradient id="SVGID_5_" gradientUnits="userSpaceOnUse" x1="109.2343" y1="61.9434" x2="109.2343" y2="61.9434">
		<stop  offset="0" style="stop-color:#F0E687"/>
		<stop  offset="1" style="stop-color:#C59632"/>
	</linearGradient>
	<path class="st4" d="M109.2,61.9"/>
</g>
</svg>
